<svg width="599" height="358" viewBox="0 0 599 358" fill="none" xmlns="http://www.w3.org/2000/svg">
<path d="M365.745 244.243C356.322 244.243 348.655 236.576 348.655 227.153C348.655 217.73 356.321 210.062 365.745 210.062C375.169 210.062 382.835 217.729 382.835 227.153C382.835 236.576 375.169 244.243 365.745 244.243ZM365.745 215.358C359.242 215.358 353.951 220.649 353.951 227.153C353.951 233.656 359.242 238.948 365.745 238.948C372.249 238.948 377.54 233.656 377.54 227.153C377.54 220.649 372.249 215.358 365.745 215.358Z" fill="#FEE4C0"/>
<path d="M359.323 227.676C358.778 227.676 358.226 227.541 357.716 227.257C356.119 226.368 355.546 224.352 356.436 222.756L372.483 193.955C373.373 192.359 375.388 191.785 376.985 192.676C378.581 193.565 379.155 195.58 378.264 197.177L362.217 225.977C361.612 227.063 360.486 227.676 359.323 227.676Z" fill="white"/>
<path d="M364.479 254.349H348.094C346.894 254.354 345.707 254.122 344.597 253.664C343.488 253.208 342.481 252.536 341.633 251.688C340.785 250.841 340.113 249.833 339.657 248.724C339.201 247.616 338.968 246.427 338.973 245.227V206.124H373.6V245.143C373.607 246.347 373.376 247.54 372.921 248.654C372.466 249.768 371.796 250.783 370.95 251.637C370.102 252.491 369.095 253.171 367.985 253.637C366.874 254.103 365.683 254.344 364.479 254.349Z" fill="#FEE4C0"/>
<path d="M364.562 224.282H357.13V235.769H364.562V224.282Z" fill="#0068BA"/>
<path d="M361.086 206.123H359.764V224.281H361.086V206.123Z" fill="white"/>
<path d="M256.516 283.883H94.7089L84.354 235.486V127.69C84.354 109.529 99.9867 94.8062 119.271 94.8062H221.598C240.883 94.8062 256.515 109.529 256.515 127.69V283.883H256.516Z" fill="#6F6F89"/>
<path d="M192.47 114.772L203.228 119.593L168.673 156.287L138.803 120.671L149.403 114.156L149.073 98.4499L192.148 96.9827L192.47 114.772Z" fill="#EEBC89"/>
<path d="M92.1276 223.482C99.5524 206.655 113.14 194.031 113.033 192.214C113.095 192.936 113.613 191.804 114.293 196.354C115.537 204.679 116.437 222.572 119.094 248.941C121.323 271.136 127.904 258.752 125.077 278.443C123.733 287.804 239.304 278.123 239.304 278.123L234.536 204.809L236.989 196.929L249.674 225.669C249.751 225.398 249.828 225.122 249.905 224.853C253.72 209.097 263.731 194.848 271.131 179.662C266.141 164.982 260.869 150.749 250.607 137.517C243.982 128.974 196.56 116.605 196.56 116.605C196.56 116.605 193.292 136.904 170.204 136.904C151.753 136.904 144.709 117.041 144.709 117.041L106.27 132.013C91.1308 137.85 84.1599 152.177 75.065 167.663C70.7127 175.074 61.6463 192.523 56.2544 206.349C51.5743 218.35 41.6317 247.315 58.3039 252.589C65.2408 254.783 93.3195 255.185 103.156 253.429C110.736 252.076 120.813 240.442 121.854 234.457C122.144 232.789 91.4466 225.025 92.1276 223.482Z" fill="#2F2C4A"/>
<path d="M268.184 171.594C272.675 185.19 279.102 200.396 279.102 200.396C279.102 200.396 292.605 231.238 286.689 247.686C283.256 257.23 260.232 278.123 260.232 278.123C260.232 278.123 252.168 269.053 247.788 265.709C247.869 265.488 252.364 237.004 252.364 237.004C252.364 237.004 249.7 228.561 247.137 220.283C247.052 220.007 260.783 187.223 268.184 171.594Z" fill="#2F2C4A"/>
<path d="M131.796 79.4517C133.149 84.5014 137.537 87.7133 141.599 86.6266L136.701 68.3391C132.64 69.4269 130.444 74.402 131.796 79.4517Z" fill="#FECE9A"/>
<path d="M206.391 76.9123C205.442 82.053 201.323 85.6026 197.188 84.8404L200.622 66.2229C204.756 66.985 207.34 71.7715 206.391 76.9123Z" fill="#FECE9A"/>
<path d="M187.72 104.614C184.927 109.725 181.134 111.655 174.719 112.406C168.984 113.079 163.585 114.443 159.399 111.01C154.787 107.231 151.151 104.487 147.973 99.4416C143.683 92.6297 140.585 85.445 138.437 77.7252C136.21 69.7235 137.745 59.4958 139.723 51.595C140.921 46.8085 142.664 42.102 145.452 38.0305C148.241 33.96 152.145 30.5453 156.804 28.9202C159.686 27.9157 162.764 27.6153 165.813 27.4979C168.858 27.3806 171.95 27.4453 174.882 28.271C177.808 29.0945 180.486 30.6539 182.877 32.529C193.264 40.6677 197.94 54.161 199.865 67.2156C201.758 80.0291 193.721 93.6331 187.72 104.614Z" fill="#FECE9A"/>
<g opacity="0.53">
<path opacity="0.53" d="M181.204 84.7395C181.784 81.6976 188.377 79.5429 191.065 80.1372C193.714 80.7228 197.068 83.8962 195.827 86.8383" fill="#DB8869"/>
</g>
<g opacity="0.53">
<path opacity="0.53" d="M159.196 86.1859C158.377 83.1999 151.634 81.5737 149.001 82.3786C146.407 83.1725 143.316 86.6004 144.785 89.435" fill="#DB8869"/>
</g>
<path d="M134.824 40.402C136.833 35.1231 140.702 30.7796 144.741 26.8319C155.17 16.6426 167.211 8.28019 179.211 0C179.697 1.70407 180.181 3.40814 180.667 5.1122C184.138 4.48387 187.745 4.62862 191.154 5.53438C189.771 8.00385 188.377 11.0578 189.783 13.5152C190.492 14.7543 191.778 15.5318 193.008 16.2555C201.563 21.2855 210.118 26.3155 218.673 31.3454C213.252 44.5733 204.761 56.4843 200.437 70.1113C197.32 60.8475 193.268 51.8995 188.361 43.4461C180.555 46.273 172.369 48.0462 164.094 48.703C163.488 48.7513 162.836 48.7831 162.319 48.4618C161.57 47.9968 161.4 46.9978 160.911 46.2653C159.988 44.8837 158.096 44.6292 156.44 44.5042C152.167 44.1829 147.895 43.8617 143.623 43.5404C141.613 53.6003 139.604 63.6602 137.594 73.7212C135.304 61.2576 134.673 53.0717 134.824 40.402Z" fill="#633B24"/>
<path d="M147.35 87.9688C156.47 85.9697 165.721 84.7855 175.064 84.7394C179.551 84.7175 184.036 84.9225 188.512 85.2219C190.602 85.3612 198.087 85.3129 198.748 86.9062C199.026 87.5784 199.098 88.5127 199.263 89.2375C199.955 92.2871 200.726 95.3301 201.175 98.4213C201.431 100.177 201.596 102.025 202.427 103.619C200.654 104.358 197.639 104.751 196.28 106.175C194.951 107.568 193.834 110.945 193.208 112.786C192.94 113.573 192.651 114.377 192.682 115.213C188.128 114.738 182.939 115.096 178.404 115.792C174.671 116.366 171.079 118.928 167.847 120.8C164.439 116.749 159.646 114.233 155.444 111.132C151.139 107.955 147.98 104.296 145.478 99.6089C143.736 96.3422 142.095 92.9362 141.598 89.2671L147.35 87.9688Z" fill="#633B24"/>
<path d="M155.667 93.5714C165.457 92.0461 178.097 89.6709 188.002 89.4363C187.09 94.8128 182.092 99.0696 176.697 99.8712C165.325 101.562 156.306 95.7284 155.667 93.5714Z" fill="white"/>
<path d="M171.129 84.2304C172.363 92.6356 160.968 92.8846 156.828 93.2695C151.067 93.8046 143.794 93.2771 138.821 88.8042C144.28 87.7877 149.755 86.5716 155.229 85.5463C160.441 84.5704 166.832 82.3487 172.127 84.191" fill="#483015"/>
<path d="M170.41 84.2594C169.846 92.7359 181.224 92.0823 185.383 92.1383C191.167 92.2161 198.376 91.1141 202.979 86.2618C197.457 85.6806 191.903 84.902 186.364 84.3121C181.092 83.7517 174.544 82.0433 169.411 84.2989" fill="#483015"/>
<path d="M175.31 80.6206L165.83 80.9452L167.519 68.1077L172.786 67.9268L175.31 80.6206Z" fill="#DB8869"/>
<path d="M155.033 68.6582C155.046 68.9707 154.801 69.2295 154.494 69.2415C154.176 69.2536 153.919 69.0145 153.906 68.702C153.894 68.395 154.131 68.1307 154.449 68.1175C154.757 68.1066 155.021 68.35 155.033 68.6582Z" fill="white"/>
<path d="M157.945 70.1933C158.011 71.8765 156.697 73.3196 155 73.3865C153.301 73.4534 151.875 72.1199 151.808 70.4367C151.741 68.737 153.056 67.3005 154.756 67.2336C156.452 67.1667 157.877 68.4936 157.945 70.1933Z" fill="#483015"/>
<path d="M187.266 69.0307C187.333 70.7139 186.018 72.157 184.322 72.2239C182.622 72.2908 181.196 70.9573 181.129 69.2741C181.063 67.5744 182.377 66.1379 184.077 66.071C185.774 66.0041 187.199 67.331 187.266 69.0307Z" fill="#483015"/>
<path d="M161.732 62.0742C161.744 62.992 160.892 63.7508 159.824 63.7651L147.753 63.9449C146.69 63.9614 145.818 63.2288 145.801 62.3033C145.789 61.3811 146.644 60.6223 147.705 60.6059L159.777 60.426C160.844 60.4107 161.715 61.1509 161.732 62.0742Z" fill="#483015"/>
<path d="M193.106 60.8297C193.118 61.7476 192.262 62.5064 191.198 62.5206L179.128 62.7005C178.064 62.7169 177.185 61.9844 177.173 61.0589C177.159 60.1367 178.014 59.3779 179.075 59.3614L191.143 59.1816C192.214 59.1673 193.09 59.9075 193.106 60.8297Z" fill="#483015"/>
<path d="M147.472 65.7678C147.49 66.0836 146.743 66.3863 145.799 66.4477C144.857 66.5058 144.071 66.2975 144.054 65.9806C144.035 65.6636 144.784 65.3599 145.727 65.3029C146.672 65.2426 147.453 65.4509 147.472 65.7678Z" fill="#F2F2F3"/>
<path d="M196.529 63.8222C196.548 64.138 195.8 64.4407 194.856 64.5021C193.913 64.5602 193.132 64.3519 193.11 64.0349C193.092 63.718 193.843 63.4143 194.785 63.3573C195.732 63.298 196.512 63.5053 196.529 63.8222Z" fill="#F2F2F3"/>
<path fill-rule="evenodd" clip-rule="evenodd" d="M143.063 64.6085L143.386 67.7261C143.386 67.7261 144.668 67.2217 145.482 71.302C146.3 75.3845 147.114 81.1009 156.575 80.8564C166.036 80.6097 167.649 71.9259 168.124 70.666C168.597 69.4071 168.691 68.4893 169.267 68.2064C169.999 67.8456 170.593 67.8215 171.353 68.1241C171.951 68.3599 172.115 69.2679 172.688 70.485C173.257 71.7033 175.555 80.2324 185.005 79.7291C194.454 79.2236 194.814 73.4611 195.302 69.3271C195.791 65.1952 197.114 65.5965 197.114 65.5965L197.186 62.4636C190.147 61.1094 181.28 61.5239 176.899 63.0711C175.257 63.6501 173.901 64.0745 172.851 64.3706C170.472 65.0494 169.903 65.0713 167.477 64.5833C166.401 64.3717 165.017 64.0559 163.336 63.6085C158.845 62.4121 149.978 62.7005 143.063 64.6085ZM151.618 64.8257C149.703 65.3301 147.868 66.3334 147.26 68.2919C146.426 70.9807 147.211 73.8537 148.52 75.98C150.322 78.9078 152.776 79.7971 156.112 79.7807C159.595 79.7609 163.881 78.3145 165.576 72.3372C166.785 68.0627 164.982 66.0472 162.729 65.113C159.951 63.9594 154.516 64.0646 151.618 64.8257ZM188.673 63.3563C190.628 63.7072 192.534 64.5625 193.298 66.4672C194.341 69.0814 193.787 72.0071 192.648 74.2309C191.081 77.2925 188.703 78.3727 185.377 78.6205C181.908 78.876 177.518 77.7739 175.358 71.949C173.815 67.7842 175.452 65.6316 177.625 64.523C180.304 63.1523 185.727 62.8277 188.673 63.3563ZM194.744 63.5317C193.99 63.524 193.383 63.7082 193.392 63.9429C193.401 64.1743 194.024 64.3717 194.778 64.3783C195.539 64.3892 196.147 64.205 196.137 63.9703C196.128 63.7368 195.506 63.5416 194.744 63.5317ZM145.581 65.4814C146.334 65.4134 146.955 65.5494 146.963 65.7841C146.972 66.0154 146.367 66.2622 145.614 66.328C144.858 66.3992 144.237 66.2633 144.228 66.0286C144.218 65.7939 144.826 65.5505 145.581 65.4814Z" fill="#54666A"/>
<path d="M321.688 154.915V245.269C321.688 248.522 319.762 252.511 316.51 252.511H169.171C165.91 252.511 162.252 248.522 162.252 245.269V154.915C162.252 151.654 165.91 149.342 169.171 149.342H316.51C319.762 149.342 321.688 151.654 321.688 154.915Z" fill="#ECECEC"/>
<path d="M316.508 149.344H290.069L186.903 252.509H316.508C319.765 252.509 321.692 248.523 321.692 245.267V154.912C321.691 151.657 319.765 149.344 316.508 149.344Z" fill="#E6E7E8"/>
<g opacity="0.6">
<path d="M229.15 195.346L236.174 191.691C236.071 191.239 235.641 190.913 235.167 190.949L229.021 191.427C228.506 191.47 228.127 191.921 228.178 192.432L228.261 193.298C228.314 193.812 227.958 194.263 227.47 194.302L226.581 194.371L227.929 207.973L229.116 195.716L229.15 195.346Z" fill="#C4C4C4"/>
<path d="M235.968 198.978H234.345V200.937H235.968C236.592 200.937 237.058 200.568 237.058 199.955C237.058 199.348 236.592 198.978 235.968 198.978Z" fill="#C4C4C4"/>
<path d="M243.72 188.488L229.809 195.722L228.317 211.155L254.943 209.064L256.433 193.633L243.72 188.488ZM237.221 204.884L235.633 202.303H234.345V204.884H232.795V197.614H236.198C237.713 197.614 238.639 198.603 238.639 199.956C238.639 201.242 237.991 201.928 237.207 202.116L238.996 204.884H237.221ZM245.111 198.978H241.514V200.511H244.724V201.874H241.514V203.523H245.111V204.883H239.965V197.613H245.111V198.978ZM252.944 203.654C252.201 204.485 251.167 205.028 249.846 205.028C247.72 205.028 245.976 203.545 245.976 201.255C245.976 198.95 247.721 197.491 249.846 197.491C251.361 197.491 252.309 198.256 252.857 199.117L251.569 199.816C251.242 199.299 250.619 198.865 249.846 198.865C248.524 198.865 247.566 199.881 247.566 201.255C247.566 202.627 248.524 203.644 249.846 203.644C250.49 203.644 251.1 203.357 251.395 203.084V202.31H249.473V200.938H252.943L252.944 203.654Z" fill="#C4C4C4"/>
</g>
<path d="M306.405 254.348H177.538C176.643 254.348 175.918 253.623 175.918 252.728V252.295C175.918 251.4 176.643 250.676 177.538 250.676H306.405C307.299 250.676 308.024 251.4 308.024 252.295V252.728C308.025 253.622 307.299 254.348 306.405 254.348Z" fill="#C6C6C5"/>
<path d="M177.755 254.348H306.19C307.204 254.348 308.025 253.526 308.025 252.512H175.918C175.918 253.526 176.741 254.348 177.755 254.348Z" fill="#9C9B9B"/>
<path d="M152.187 254.348H113.317V253.198C113.317 248.441 117.174 244.584 121.93 244.584H143.575C148.331 244.584 152.188 248.441 152.188 253.198V254.348H152.187Z" fill="#D9D9D9"/>
<path d="M116.009 233.185C116.009 233.185 92.5178 236.285 88.1195 241.718C82.0829 249.177 89.8312 254.306 92.9773 254.347C96.0894 254.388 115.683 253.942 117.709 254.751C119.736 255.56 142.028 235.579 127.887 234.262C113.744 232.944 116.009 233.185 116.009 233.185Z" fill="#FECE9A"/>
<path d="M113.613 241.222L126.097 230.974L134.48 242.314L140.509 251.357" stroke="#FECE9A" stroke-width="9" stroke-miterlimit="10" stroke-linecap="round" stroke-linejoin="round"/>
<path d="M104.771 241.222L117.254 230.974L128.35 251.357" stroke="#FECE9A" stroke-width="9" stroke-miterlimit="10" stroke-linecap="round" stroke-linejoin="round"/>
<path d="M95.9282 241.222L108.412 233.185L118.402 250.252" stroke="#FECE9A" stroke-width="9" stroke-miterlimit="10" stroke-linecap="round" stroke-linejoin="round"/>
<path d="M87.8638 240.889L92.4387 237.51L92.5023 237.463C94.4904 235.995 97.1408 236.056 99.0455 237.427L110.837 245.931C113.064 247.536 113.567 250.644 111.961 252.87C110.596 254.762 108.144 255.407 106.072 254.574L92.5857 249.145L99.1914 249.061L94.0035 251.391C90.9211 252.776 87.3002 251.399 85.9152 248.317C84.7145 245.642 85.5961 242.561 87.8638 240.889Z" fill="#FECE9A"/>
<path d="M24.0254 263.227V264.314C24.0342 269.501 26.099 274.473 29.767 278.141C33.434 281.808 38.4058 283.873 43.5937 283.882H497.898C503.086 283.873 508.057 281.808 511.724 278.141C515.392 274.473 517.457 269.501 517.466 264.314V263.227H24.0254Z" fill="#D4A680"/>
<path d="M479.421 254.349H62.0716H0.380859V263.318H62.0716H479.421H541.113V254.349H479.421Z" fill="#FFFCFF"/>
<path d="M384.42 118.23L465.693 147.809L466.694 145.06L385.421 115.481L384.42 118.23Z" fill="#D1D3D4"/>
<path d="M382.029 124.797L463.303 154.376L464.303 151.627L383.03 122.047L382.029 124.797Z" fill="#D1D3D4"/>
<path d="M433.301 230.085L462.88 148.811L460.131 147.811L430.552 229.084L433.301 230.085Z" fill="#D1D3D4"/>
<path d="M439.867 232.475L469.446 151.201L466.697 150.201L437.118 231.474L439.867 232.475Z" fill="#D1D3D4"/>
<path d="M398.123 116.69C402.353 119.132 407.762 117.68 410.201 113.449L411.649 110.936C414.086 106.708 412.636 101.305 408.41 98.8665C404.179 96.4244 398.771 97.8762 396.332 102.108L394.884 104.62C392.447 108.847 393.897 114.25 398.123 116.69Z" fill="#A7A9AC"/>
<path d="M380.76 146.813C384.99 149.255 390.398 147.803 392.837 143.572L394.286 141.059C396.722 136.831 395.273 131.428 391.047 128.989C386.816 126.547 381.408 127.999 378.969 132.231L377.52 134.743C375.084 138.97 376.533 144.374 380.76 146.813Z" fill="white"/>
<path d="M359.515 128.671L407.099 156.139L411.076 149.239C418.649 136.1 414.144 119.31 401.009 111.728C387.863 104.14 371.054 108.651 363.473 121.801L359.515 128.671Z" fill="#E6E7E8"/>
<path d="M387.911 108.048L410.721 121.214L410.977 120.768C412.541 118.056 411.61 114.59 408.899 113.025L395.912 105.528C393.198 103.962 389.728 104.893 388.163 107.607L387.911 108.048Z" fill="#D1D3D4"/>
<path d="M465.002 160.137C470.747 160.137 475.404 155.48 475.404 149.735C475.404 143.99 470.747 139.333 465.002 139.333C459.257 139.333 454.6 143.99 454.6 149.735C454.6 155.48 459.257 160.137 465.002 160.137Z" fill="#BCBEC0"/>
<path d="M427.729 246.44H448.532V225.691C448.532 222.609 446.034 220.11 442.951 220.11H433.308C430.227 220.11 427.728 222.608 427.728 225.691V246.44H427.729Z" fill="#D1D3D4"/>
<path d="M465.001 152.986C466.796 152.986 468.251 151.531 468.251 149.736C468.251 147.941 466.796 146.485 465.001 146.485C463.206 146.485 461.751 147.941 461.751 149.736C461.751 151.531 463.206 152.986 465.001 152.986Z" fill="#808285"/>
<path d="M438.185 232.137C439.98 232.137 441.435 230.682 441.435 228.887C441.435 227.092 439.98 225.637 438.185 225.637C436.39 225.637 434.935 227.092 434.935 228.887C434.935 230.682 436.39 232.137 438.185 232.137Z" fill="#808285"/>
<path d="M417.397 251.099H458.323V247.432C458.323 245.089 456.423 243.188 454.079 243.188H421.639C419.296 243.188 417.396 245.087 417.396 247.432V251.099H417.397Z" fill="#808285"/>
<path d="M400.314 254.349H475.402V250.682C475.402 248.339 473.503 246.439 471.159 246.439H404.558C402.215 246.439 400.316 248.339 400.316 250.682V254.349H400.314Z" fill="#E6E7E8"/>
<path opacity="0.1" d="M509 358H598.5L540 263.5H518L509 358Z" fill="black"/>
<rect x="23" y="263" width="495" height="95" fill="#D4A680"/>
<rect opacity="0.05" x="23" y="263" width="495" height="15" fill="#333333"/>
</svg>
