<svg width="20" height="20" viewBox="0 0 20 20" version="1.1" xmlns="http://www.w3.org/2000/svg" xmlns:xlink="http://www.w3.org/1999/xlink">
<g id="Canvas" fill="none">
<g id="Vector">
<path d="M 13.6222 2.30866C 12.1187 0.823484 10.0887 -0.00647028 7.97536 3.79915e-05C 5.86205 0.00654626 3.83717 0.848988 2.3429 2.3434C 0.84862 3.8378 0.00635732 5.86276 3.58423e-05 7.97607C -0.00628563 10.0894 0.823848 12.1193 2.30916 13.6227C 4.94516 16.2577 8.95616 16.6607 12.0232 14.8527L 16.4532 19.2797C 16.6371 19.4732 16.8578 19.6279 17.1025 19.7347C 17.3471 19.8416 17.6107 19.8983 17.8776 19.9017C 18.1446 19.9051 18.4095 19.855 18.6567 19.7543C 18.904 19.6537 19.1286 19.5046 19.3173 19.3158C 19.5061 19.127 19.6551 18.9024 19.7556 18.6551C 19.8562 18.4078 19.9062 18.1428 19.9027 17.8759C 19.8992 17.609 19.8424 17.3454 19.7354 17.1008C 19.6285 16.8562 19.4737 16.6355 19.2802 16.4517L 14.8522 12.0237C 16.6622 8.95666 16.2582 4.94366 13.6222 2.30866ZM 11.5022 11.5017C 10.5632 12.4327 9.29368 12.9539 7.97139 12.9512C 6.64911 12.9485 5.38173 12.4221 4.4466 11.4872C 3.51146 10.5523 2.98472 9.28512 2.98164 7.96283C 2.97856 6.64054 3.49939 5.37088 4.43016 4.43166C 5.36779 3.4943 6.63934 2.96773 7.96516 2.96773C 9.29098 2.96773 10.5625 3.4943 11.5002 4.43166C 12.4375 5.3693 12.9641 6.64084 12.9641 7.96666C 12.9641 9.29248 12.4375 10.564 11.5002 11.5017L 11.5022 11.5017Z" fill="#515151"/>
</g>
</g>
</svg>

