<svg width="87" height="42" viewBox="0 0 87 42" fill="none" xmlns="http://www.w3.org/2000/svg">
<path d="M23.7996 40.3889L3.0943 42L0 10.7934L1.6457 10.6641C2.55247 10.5932 3.21618 9.75739 3.12216 8.8062L2.96267 7.19862C2.86796 6.24673 3.57206 5.40748 4.52689 5.33378L15.9486 4.44794C16.9027 4.37285 17.7621 5.08972 17.8561 6.04161L18.0149 7.64849L18.1869 9.37914L24.0406 8.92371L45.6888 9.25537L47.8506 35.3667L43.9108 38.8266L23.7996 40.3889Z" fill="#C6C5C5"/>
<path d="M31.7889 0L5.97107 13.4092L3.19922 42L28.9112 39.985L43.3687 38.8516L52.6112 38.1271L55.3803 9.53768L31.7889 0Z" fill="#066BC6"/>
<path d="M19.7229 30.3882L16.7791 25.5988H14.384V30.3882H11.5098V16.9094H17.8251C20.6381 16.9094 22.359 18.7493 22.359 21.2545C22.359 23.6387 21.152 24.9119 19.6951 25.256L23.022 30.3882H19.7229ZM19.4249 21.2538C19.4249 20.1225 18.5536 19.4355 17.401 19.4355H14.3847V23.072H17.401C18.5536 23.0727 19.4249 22.3865 19.4249 21.2538Z" fill="white"/>
<path d="M24.8164 30.3882V16.9094H34.3709V19.4362H27.6906V22.2849H33.648V24.811H27.6906V27.8628H34.3709V30.3889L24.8164 30.3882Z" fill="white"/>
<path d="M35.9707 23.6589C35.9707 19.3952 39.2092 16.6869 43.1566 16.6869C45.9702 16.6869 47.7316 18.1012 48.7435 19.6991L46.354 20.9917C45.7481 20.0418 44.5948 19.2332 43.1566 19.2332C40.7065 19.2332 38.9257 21.1126 38.9257 23.6589C38.9257 26.2051 40.7072 28.0846 43.1566 28.0846C44.351 28.0846 45.4855 27.5582 46.0308 27.0534V25.6148H42.4685V23.0741H48.9044V28.1055C47.5282 29.6407 45.606 30.6517 43.1566 30.6517C39.2099 30.651 35.9707 27.9031 35.9707 23.6589Z" fill="white"/>
<path d="M55.9082 28.9732C55.9082 28.0853 56.6576 27.3364 57.5476 27.3364C58.4398 27.3364 59.1871 28.0839 59.1871 28.9732C59.1871 29.8625 58.4398 30.61 57.5476 30.61C56.6576 30.6107 55.9082 29.8632 55.9082 28.9732Z" fill="black"/>
<path d="M69.689 30.3882L66.4561 25.5988H64.3508V30.3882H61.4766V16.9094H67.7919C70.6049 16.9094 72.3265 18.7493 72.3265 21.2545C72.3265 23.6387 70.8284 24.9119 69.3715 25.256L72.9881 30.3882H69.689ZM69.3923 21.2538C69.3923 20.1225 68.5204 19.4355 67.3671 19.4355H64.3508V23.072H67.3664C68.5204 23.0727 69.3923 22.3865 69.3923 21.2538Z" fill="black"/>
<path d="M74.4941 25.0127V16.9094H77.4095V24.9112C77.4095 26.792 78.2118 28.0846 80.2969 28.0846C82.3807 28.0846 83.1628 26.792 83.1628 24.9112V16.9094H86.0997V24.9925C86.0997 28.3474 84.4038 30.6315 80.2969 30.6315C76.1865 30.6302 74.4941 28.3273 74.4941 25.0127Z" fill="black"/>
</svg>
