<svg width="18" height="12" viewBox="0 0 18 12" version="1.1" xmlns="http://www.w3.org/2000/svg" xmlns:xlink="http://www.w3.org/1999/xlink">
<g id="Canvas" fill="none">
<g id="Group">
<g id="Vector">
<path d="M 8 6.9L 16 0.9C 15.5 0.3 14.8 0 14 0L 2 0C 1.2 0 0.5 0.3 0 0.8L 8 6.9Z" transform="translate(1 0)" fill="#515151"/>
</g>
<g id="Vector_2">
<path d="M 8.1 5.9L 0.2 0C 0.1 0.3 0 0.6 0 1L 0 7C 0 8.7 1.3 10 3 10L 15 10C 16.7 10 18 8.7 18 7L 18 1C 18 0.6 17.9 0.3 17.8 0L 9.9 5.9L 9 6.6" transform="translate(0 2)" fill="#515151"/>
</g>
</g>
</g>
</svg>

