<svg xmlns="http://www.w3.org/2000/svg" viewBox="0 0 56 56"><path d="M36.985 0H7.963C7.155 0 6.5.655 6.5 1.926V55c0 .345.655 1 1.463 1h40.074c.808 0 1.463-.655 1.463-1V12.978c0-.696-.093-.92-.257-1.085L37.607.257A.884.884 0 0 0 36.985 0z" fill="#e9e9e0"/><path fill="#d9d7ca" d="M37.5.15V12h11.85z"/><path d="M18.5 13h-6a1 1 0 0 1 0-2h6a1 1 0 0 1 0 2zm3 5h-9a1 1 0 0 1 0-2h9a1 1 0 0 1 0 2zm4 0c-.26 0-.52-.11-.71-.29-.18-.19-.29-.45-.29-.71 0-.26.11-.52.29-.71.37-.37 1.05-.37 1.42 0 .18.19.29.45.29.71 0 .26-.11.52-.29.71-.19.18-.45.29-.71.29zm12 0h-8a1 1 0 0 1 0-2h8a1 1 0 0 1 0 2zm-25 15c-.26 0-.52-.11-.71-.29-.18-.19-.29-.45-.29-.71 0-.26.11-.52.29-.71.37-.37 1.05-.37 1.42 0 .18.19.29.44.29.71 0 .26-.11.52-.29.71-.19.18-.45.29-.71.29zm12 0h-8a1 1 0 0 1 0-2h8a1 1 0 0 1 0 2zm19-15h-2a1 1 0 0 1 0-2h2a1 1 0 0 1 0 2zm-9 5h-22a1 1 0 0 1 0-2h22a1 1 0 0 1 0 2zm9 0h-6a1 1 0 0 1 0-2h6a1 1 0 0 1 0 2zm-27 5h-4a1 1 0 0 1 0-2h4a1 1 0 0 1 0 2zm14 0h-10a1 1 0 0 1 0-2h10a1 1 0 0 1 0 2zm13 0h-9a1 1 0 0 1 0-2h9a1 1 0 0 1 0 2z" fill="#8697cb"/><path d="M48.037 56H7.963A1.463 1.463 0 0 1 6.5 54.537V39h43v15.537c0 .808-.655 1.463-1.463 1.463z" fill="#0096e6"/><path d="M23.5 47.682c0 .83-.09 1.538-.267 2.126s-.403 1.08-.677 1.477-.58.71-.923.937-.672.398-.99.513c-.32.114-.612.187-.876.22a5.76 5.76 0 0 1-.587.045h-3.814V42.924H18.4c.848 0 1.593.135 2.235.403s1.176.627 1.6 1.073.74.955.95 1.524c.21.57.315 1.156.315 1.758zm-4.867 4.115c1.112 0 1.914-.355 2.406-1.066s.736-1.74.736-3.09c0-.417-.05-.832-.15-1.242-.1-.41-.294-.78-.58-1.114s-.678-.602-1.17-.807-1.13-.308-1.914-.308h-.957v7.63h1.627zm14.842-3.883c0 .848-.107 1.595-.32 2.242-.215.647-.512 1.185-.89 1.613-.378.427-.82.75-1.326.97s-1.06.327-1.663.327-1.155-.11-1.66-.328-.95-.543-1.327-.97c-.377-.43-.674-.968-.888-1.615-.214-.647-.32-1.395-.32-2.242s.106-1.593.32-2.235c.214-.644.51-1.18.89-1.607.377-.43.82-.753 1.325-.977s1.06-.335 1.66-.335 1.156.11 1.662.335.946.55 1.324.978c.378.43.674.965.89 1.607.212.64.32 1.386.32 2.234zm-4.24 3.815c.338 0 .66-.068.965-.2.305-.13.58-.35.82-.65.24-.3.43-.694.567-1.182s.21-1.083.22-1.785c-.01-.684-.08-1.265-.213-1.743-.132-.48-.314-.873-.547-1.183s-.497-.534-.793-.67a2.203 2.203 0 0 0-.937-.206c-.337 0-.66.064-.964.19a2.08 2.08 0 0 0-.82.65c-.242.307-.43.7-.567 1.184s-.21 1.075-.22 1.777c.01.685.08 1.268.213 1.75.13.484.312.878.545 1.184s.497.528.793.67c.296.14.608.212.936.212zm13.372.245a3.73 3.73 0 0 1-1.27.82 4.212 4.212 0 0 1-1.532.273c-.602 0-1.155-.11-1.66-.328s-.95-.542-1.327-.97c-.378-.43-.675-.967-.89-1.614-.213-.647-.32-1.395-.32-2.242s.107-1.593.32-2.235c.215-.645.51-1.18.89-1.608a3.78 3.78 0 0 1 1.333-.978 4.07 4.07 0 0 1 1.656-.335c.547 0 1.057.09 1.53.272a3.73 3.73 0 0 1 1.272.82l-1.135 1.012a2.072 2.072 0 0 0-1.627-.752c-.337 0-.66.063-.964.19a2.1 2.1 0 0 0-.82.65c-.24.306-.43.7-.566 1.183s-.21 1.075-.22 1.777c.01.684.08 1.267.213 1.75.13.483.313.877.546 1.183s.497.528.793.67c.295.142.607.212.936.212s.636-.06.923-.178.55-.31.785-.575l1.134 1z" fill="#FFF"/></svg>