<svg xmlns="http://www.w3.org/2000/svg" width="512" height="512" viewBox="0 0 612 612"><path d="M598.22 531.586L487.64 421.044c30.315-43.443 48.23-96.15 48.23-153.105C535.87 119.962 415.91.004 267.934.004S0 119.963 0 267.94s119.958 267.933 267.934 267.933c56.956 0 109.662-17.913 153.105-48.228l110.54 110.542c18.412 18.41 48.23 18.41 66.64 0 18.373-18.373 18.373-48.19 0-66.6zM267.935 459.32c-105.68 0-191.38-85.7-191.38-191.38 0-105.682 85.7-191.382 191.38-191.382 105.68 0 191.38 85.7 191.38 191.38 0 105.682-85.7 191.382-191.38 191.382z" fill="#074481"/></svg>